<?xml version="1.0" standalone="no"?>
<!DOCTYPE svg PUBLIC "-//W3C//DTD SVG 20010904//EN"
 "http://www.w3.org/TR/2001/REC-SVG-20010904/DTD/svg10.dtd">
<svg version="1.0" xmlns="http://www.w3.org/2000/svg"
 width="533.000000pt" height="534.000000pt" viewBox="0 0 533.000000 534.000000"
 preserveAspectRatio="xMidYMid meet">

<g transform="translate(0.000000,534.000000) scale(0.100000,-0.100000)"
fill="#000000" stroke="none">
<path d="M2240 4695 l0 -645 440 0 440 0 0 645 0 645 -440 0 -440 0 0 -645z"/>
<path d="M787 4552 l-307 -307 458 -458 457 -457 308 308 307 307 -458 458
-457 457 -308 -308z"/>
<path d="M3787 4402 l-457 -457 310 -310 310 -310 458 458 457 457 -310 310
-310 310 -458 -458z"/>
<path d="M0 2670 l0 -440 645 0 645 0 0 440 0 440 -645 0 -645 0 0 -440z"/>
<path d="M4035 3098 c-3 -7 -4 -204 -3 -438 l3 -425 648 -3 647 -2 0 440 0
440 -645 0 c-507 0 -647 -3 -650 -12z"/>
<path d="M937 1552 l-457 -457 310 -310 310 -310 458 458 457 457 -310 310
-310 310 -458 -458z"/>
<path d="M3645 1700 l-310 -310 458 -458 457 -457 310 310 310 310 -458 458
-457 457 -310 -310z"/>
<path d="M2240 645 l0 -645 440 0 440 0 0 645 0 645 -440 0 -440 0 0 -645z"/>
</g>
</svg>
