<svg xmlns="http://www.w3.org/2000/svg" viewBox="0 0 600 600"><defs><style>.a{fill:#2783c1}.b{fill:#25a6e2}.c{fill:#93c9eb}.d{fill:#25a4e2}.e{fill:#dbf7fb}.f{fill:#93caeb}.g{fill:#fdfdfd}</style></defs><rect width="600" height="600" class="a" rx="140"/><rect width="560" height="560" x="20" y="20" class="b" rx="120"/><path d="M396.17,105.22l-4.85,0c-.33,0-.68-.06-.82-.38-.54-1.14-1.62-1.5-2.67-1.94a5.52,5.52,0,0,0-6.6,1.6c-.23.27-.4.61-.81.65l-5.83.08c1-2.55,1.91-5.1,4.75-6.32,1.28-.54,2.32-1.47,3.82-1.68,5.69-.83,9.64,1.73,12.73,6.17A2.3,2.3,0,0,1,396.17,105.22Z" class="c" transform="translate(-11.36 -8.69)"/><path d="M590.94,306.25c-19.11-.84-38.24-.37-57.37-.52-1.18,0-2.38-.13-3.36.83a3.59,3.59,0,0,0-1.06,2.63c-.42,7.89.38,15.77.1,23.67a138,138,0,0,0,0,14.81c.23,3.31.18,6.64.13,10a2.7,2.7,0,0,0,2.07,2.91A17.9,17.9,0,0,1,542,371.28c.72,1.82,2,2.26,3.67,2.26,6.71,0,13.43,0,20.14-.07q7.62-.11,15.23-.12c3.46,0,7-.41,10.47.58.14,1.77.58,3.54,0,5.32-12.54.61-25.09.11-37.63.22-2.82,0-5.64-.16-8.45-.31-1.69-.09-2.53.56-3.14,2.23-1.48,4.05-3.45,7.79-8,9.28-3.16,1-4.42,3-4.31,6.63.32,9.84.17,19.7.18,29.55,0,1.75,0,3.5-.09,5.25,0,.91-.24,1.64-1.39,1.51-1.82-.82-2.19-2.71-3.13-4.18-2.37-3.25-2-7-2-10.71,0-7.22-.06-14.43,0-21.64,0-2.46-.8-3.91-3.16-4.87-6.46-2.61-9.73-7.83-10.28-14.49a15.32,15.32,0,0,1,6.81-14.62,15.83,15.83,0,0,1,3-1.92c2.33-.94,3.1-2.77,2.93-5.12-.12-1.75-.07-3.51-.1-5.27-.18-11.66.63-23.31.41-35,0-2.33-.37-4.63-.41-6.95a1.93,1.93,0,0,0-2.14-2.12c-5.39.53-10.76-.22-16.14,0a3.48,3.48,0,0,0-2.89,1.85,16.44,16.44,0,0,1-3.1,3.76c-.92.81-1.82,1.1-2.81.14a6,6,0,0,1-.4-2.77q0-9.12,0-18.25a5.67,5.67,0,0,1,.42-2.76,1.85,1.85,0,0,1,2.69-.07,11.74,11.74,0,0,1,4.16,5.88,23.66,23.66,0,0,0,.84,2.5,3,3,0,0,0,2.36,1.94,20.78,20.78,0,0,0,5.79.32,60,60,0,0,1,8.27-.14c2.11,0,2.92-.63,2.9-2.77,0-3.07,0-6.13,0-9.19,0-13.17,0-26.34,0-39.51,0-4-.6-8-.36-12,.09-1.62-.74-2.42-2.44-2.45-4.2,0-8.4-.06-12.6.05-3.25.08-6.51-.06-9.76-.17a2.86,2.86,0,0,1-1.9-.74c-.48-2.06-1.19-4.15.55-6a30.58,30.58,0,0,1,6.2.08c2.7.34,5.39-.17,8.08-.15,5.51,0,11,.18,16.52.31,2.19.05,2.71.5,2.59,2.73-.36,6.39-.94,12.77-.63,19.17.66,13.36.05,26.73.33,40.09.05,2.65-.53,5.23-.41,7.88.1,2.48,1,3.51,3.37,3.56,15.55.32,31.11.56,46.67.33,4-.06,8-.71,12-.49C591,302,591,304.12,590.94,306.25Z" class="c" transform="translate(-11.36 -8.69)"/><path d="M536.2,376c-.05,5.65-4.24,10.73-8.83,10.58-6.81-.24-10.75-3.71-11-10.47-.2-6.28,5.66-10.06,10.16-9.88C531.58,366.43,536.25,371,536.2,376Z" class="d" transform="translate(-11.36 -8.69)"/><path d="M491.84,109.55c2.42-.13,4.87-.62,7.24-.33,6.95.84,13.92.63,20.88.56,9-.1,18.09.5,27.15.34,1.87,0,4,.38,5.57,0,3.3-.72,6.48-.16,9.7-.3,4.43-.19,8.88-.09,13.32,0,2.47,0,4.94.22,7.41.3a4.67,4.67,0,0,1,2,.81c0,.31,0,.63.07.95a.93.93,0,0,0,.31.64,4,4,0,0,1,.93,2.25c-1.44.78-3,.39-4.47.32-8.26-.43-16.52,0-24.78-.21-2.21,1.5-4.52-.17-6.82.2-2,.33-4.12-.14-6.19-.14q-18.13,0-36.26,0c-3.48,0-7-.15-10.43.16a2.18,2.18,0,0,1-3-1.1,11.44,11.44,0,0,0-2.18-2.55C491.8,110.94,491.25,110.38,491.84,109.55Z" class="c" transform="translate(-11.36 -8.69)"/><path d="M458.83,28.69a3.53,3.53,0,0,1,.72,2.59c-.09,5-.26,10.06-.22,15.07q.23,22,.25,44c0,4.9.1,9.81-.17,14.7a3.26,3.26,0,0,1-4.5,0,35,35,0,0,1-.49-6.39q0-33.69,0-67.37a3.36,3.36,0,0,1,.57-2.46Z" class="c" transform="translate(-11.36 -8.69)"/><path d="M427.52,99.08" class="d" transform="translate(-11.36 -8.69)"/><path d="M419.54,103.13" class="d" transform="translate(-11.36 -8.69)"/><path d="M240.89,29a3.79,3.79,0,0,1,.53,2.26c0,11.44,0,20.28,0,31.71a9.53,9.53,0,0,1-.14,1.51c-.32,2.2.7,3.49,2.86,3.24,4.83-.55,9.66-.23,14.49-.28,4.16,0,8.32,0,12.48,0,2.67,0,3.35-.45,3.89-3,1.11-5.29,5-8.27,9.46-9.93A12.64,12.64,0,0,1,298,57.27a15.27,15.27,0,0,1,5.11,10.94,11.81,11.81,0,0,1-3.85,9.64c-2.12,1.94-4.18,3.67-6.94,4.51a1.84,1.84,0,0,0-1.2,2,47,47,0,0,0,.19,7.41,18.57,18.57,0,0,1-.22,4.53c-.15,2.32.64,4.56.56,6.87-.69,1.21-1.88.78-2.89.85a4.56,4.56,0,0,1-2.47-.33,1.89,1.89,0,0,1-.67-1.49c0-3.09-.59-6.15-.27-9.24a53,53,0,0,0,.09-7.24,3.55,3.55,0,0,0-1.91-3.18,22.94,22.94,0,0,1-8.63-7.82,2.6,2.6,0,0,0-2.35-1.08c-9.1.06-18.21,0-27.31,0-2.29,0-3,.79-3,3.3,0,7.65,0,15.29,0,22.93,0,1.27.13,2.6-.74,3.72-1.52.41-3.05.93-4.38-.47a6.24,6.24,0,0,1-.79-3.23q0-34.39,0-68.8a3.11,3.11,0,0,1,.57-2.07Z" class="c" transform="translate(-11.36 -8.69)"/><path d="M329.6,103.18q0-28.52-.08-57c0-2.7-.49-3.07-3.25-3.06H293.7c-2.58,0-3.18-.37-3.21-2.8-.05-3.7.24-7.39.39-11.09l5.06-.2c1,.07,1.12.79,1.19,1.55.1,1.12,0,2.24.09,3.36.13,1.82.8,2.49,2.62,2.63,1,.07,1.9,0,2.86,0h22.22c3.36,0,3.67-.32,3.69-3.63,0-.67,0-1.35,0-2A1.74,1.74,0,0,1,330,29l5.28.07c.31,5.84.09,11.69.11,17.53.06,17.87,0,35.74.05,53.61,0,1-.08,1.91-.12,2.86C334.08,104.44,330.9,104.48,329.6,103.18Z" class="c" transform="translate(-11.36 -8.69)"/><path d="M289.37,77.31c-5.53,0-10.7-3.89-10.35-8,.4-4.82,3.77-9.95,9.18-9.75s9,3.26,8.86,9.24C296.91,74,294,77.33,289.37,77.31Z" class="d" transform="translate(-11.36 -8.69)"/><path d="M110.27,35.72a17.13,17.13,0,0,0-.32,4.36c0,2.44,0,4.89,0,7.34,0,10.58.66,21.17.28,31.75-.16,4.33-.09,8.64,0,13,0,1.82,1.06,2.72,2.55,3.43a19.28,19.28,0,0,1,10.43,12.11,2.81,2.81,0,0,0,3,2.13c2.88,0,5.76,0,8.63,0,.83,0,1.76-.19,2.36.66,1,2.09.91,2.3-2,3.33-.56.27-.6.91-.94,1.34a6.08,6.08,0,0,0-1.15,1.38,1.93,1.93,0,0,1-2.39.73,23.93,23.93,0,0,0-5.85-.41,4.11,4.11,0,0,0-4,2.41,13.46,13.46,0,0,1-8.58,7.21,2.57,2.57,0,0,0-2,2.58c0,7.4-.88,14.79-.18,22.21.4,4.2,0,8.45.13,12.68.13,5.5-.34,11,0,16.51a13.6,13.6,0,0,0,.22,2.38,2.35,2.35,0,0,0,2.29,2,11.57,11.57,0,0,0,2.94,0c3-.57,6,.29,9-.07,1.91-.23,3.66.4,4.26,2.61,0,1.5.33,3-.41,4.45a2.45,2.45,0,0,1-1.87.54c-4.59-.29-9.18-.08-13.77-.12-1.79,0-2.41.62-2.59,2.39,0,.55,0,1.1,0,1.65V229c0,3.17.63,3.94,3.76,3.68,3.91-.33,7.82.39,11.72-.14a3.22,3.22,0,0,1,2.79.6c.77,1.79.48,3.64.3,5.48a1.09,1.09,0,0,1-.85,1c-9.53,0-19.06.11-28.59.12q-26.34,0-52.67,0a11.35,11.35,0,0,1-3.8-.49c0-1.52-.07-3-.11-4.57a25.92,25.92,0,0,1,9-1.15c14.26,0,28.52-.53,42.79-.32a23.77,23.77,0,0,1,5.64.54c1.84.47,2.65-.09,3-1.93a12.87,12.87,0,0,0,.18-2.56q0-15.26,0-30.5,0-18,0-36a13.45,13.45,0,0,0-.08-2.2,2.46,2.46,0,0,0-2.67-2.27c-5.19.26-10.38.1-15.57.28-13.39.47-26.79.16-40.18.35-.61,0-1.95-3.61-2.12-5.47a15.15,15.15,0,0,1,5.61-.76c7.15.48,14.3-.23,21.44.05,6.61.26,13.22.27,19.82.16a79.07,79.07,0,0,1,11.52.31c1.39.18,1.93-.76,2.2-1.95a28.68,28.68,0,0,0,.29-8.42c-.13-2.15-.08-4.25,0-6.39.1-2.8,0-5.61-.11-8.41,0-1.28-1-1.87-2-2.45a30.64,30.64,0,0,1-3.47-2c-5-4.07-8.26-9.12-6.44-15.77,1.5-5.49,4-10.6,10.47-12a2.68,2.68,0,0,0,2.26-2.7,8.17,8.17,0,0,0,.05-1.1c-.26-11.27.45-18.52.34-29.78-.06-5.5-.12-15-.61-20.49a7.6,7.6,0,0,1,.28-3.61" class="c" transform="translate(-11.36 -8.69)"/><path d="M106.86,118.19C102.32,118.47,98,114,98,110c0-5.71,3.56-9.34,9.12-9.34,5.08,0,8.45,3.3,8.29,8.69C115.25,115.21,113.33,117.6,106.86,118.19Z" class="d" transform="translate(-11.36 -8.69)"/><rect width="15.53" height="6.09" x="20" y="144.25" class="c"/><rect width="20.48" height="6.21" x="20" y="224.88" class="c"/><path d="M84.81,454.52c-.71,3.23-2.51,5.92-4.33,8.59-.5.73.28,2-1,2.31.25-1.07-1.35-2.16,0-3.25.16-.13-.27-.33-.47-.43a1.42,1.42,0,0,1-.69-1.57c.42-5.73-.22-11.45-.05-17.18.6-20.81.16-41.62.32-62.43a13.54,13.54,0,0,1,.1-2A2.17,2.17,0,0,1,81,376.41c3.54,0,7.07-.09,10.61.13,2.92.18,5.86.13,8.79.15q10.71.07,21.42.11a24.56,24.56,0,0,0,.22,5.07c-1.13,1.35-2.75,1.18-4.21,1.23-3.72.14-7.45,0-11.18,0-6.11,0-12.21,0-18.32,0-2.5,0-3.27.85-3.15,3.33.16,3.1.1,6.21.13,9.31.14,18.39.07,36.77.07,55.16A10.16,10.16,0,0,1,84.81,454.52Z" class="c" transform="translate(-11.36 -8.69)"/><path d="M77.87,476.59l2.11.79a2.23,2.23,0,0,0,2.59,1.08,5.68,5.68,0,0,0,3.6,1.09c1.28-.13,2.06.66,2.85,1.44.73,2.23-.56,3.32-2.39,3.86-5.84,1.72-8.53,6.65-7.72,12.7.66,4.9,3.69,6.79,7.74,8a11.41,11.41,0,0,0,10.48-1.73,9.41,9.41,0,0,0,3.44-7.42c.1-4.69-1-9.09-5.58-11.69-1.14-.66-2-1.37-1.8-2.85l15.69-.24c1.58,4,2.47,8.13,3.67,12.2.65,2.18,2.61,2.46,4.7,2.52,15.6.41,31.19-.27,46.79-.12,10.69.1,21.39.21,32.08-.36a77.49,77.49,0,0,1,10,.42c3.24.25,2.07,2.87,2.26,4.67s-.45,2.36-2.41,2.41c-30,.82-60,.25-89.94.25-4.59,0-7.1,2-9.32,5.36-4.58,6.92-11.4,8.87-19.18,8.26C75.6,516.32,69,507.79,67.44,497,66.33,489.45,71.8,479.08,77.87,476.59Z" class="c" transform="translate(-11.36 -8.69)"/><path d="M93.19,481.88c1.07.75,2.1,1.59,3.23,2.24,5.91,3.43,7.49,13.69,2.56,20.05-2.27,2.94-9.55,4.15-13.5,2.4-1-.46-2.08-.93-3.14-1.31a6.06,6.06,0,0,1-4-4.71,17.43,17.43,0,0,1,.16-10.26,9.27,9.27,0,0,1,7.47-6.69A4.69,4.69,0,0,0,89,481C90.32,481.72,91.8,481.6,93.19,481.88Z" class="d" transform="translate(-11.36 -8.69)"/><rect width="96.44" height="8.13" x="156.77" y="536.41" class="c" transform="translate(-346.85 736.77) rotate(-90)"/><path d="M247.78,588.09c-.11-1.66-.27-3.33-.32-5a4.13,4.13,0,0,0-3-4.08c-7.34-2.81-13.07-12.28-11.52-20,1.45-7.2,5.59-12.44,13-14.64,3.32-1,6.55-1.74,10-.67,4.2,1.29,7.05,4.35,10.1,7.18a10.39,10.39,0,0,1,3.52,9.15c-.25,2.53.63,3.21,3.27,3.11,22.82-.88,45.66-.21,68.49-.34,3.3,0,6.66-.42,9.95.5,1.45.41,2-.71,2.43-1.9.59-1.74,0-3.47,0-5.2q0-31.63,0-63.27c0-3.19-.27-6.41,1.13-9.43a4.2,4.2,0,0,1,6,0c.06,13.37.15,26.75.16,40.12q0,31,0,61.94c0,.8-.06,1.6-.09,2.4l-6.61.12a2.35,2.35,0,0,1-1.12-2.22c0-3.2-.59-6.36-.53-9.57.09-4.91-.47-5.41-5.3-5.41-17.51,0-35,0-52.53,0-7.56,0-15.11.13-22.67,0a6.08,6.08,0,0,0-5.46,2.95c-2,2.9-4.42,5.42-7.93,6.5a5.17,5.17,0,0,0-3.88,5c-.09,1.09-.13,2.2-1.19,2.9Z" class="c" transform="translate(-11.36 -8.69)"/><path d="M241.19,561.73c-.51-6.7,4.11-9.68,9.05-10.08,6.86-.56,11,3.46,11,9.69,0,8.37-2.87,10.9-12.36,10.87C244.84,572.19,241.17,567.18,241.19,561.73Z" class="d" transform="translate(-11.36 -8.69)"/><path d="M502.48,584.39c.06-1.12.16-2.23.17-3.35,0-10.79-.26-21.59.15-32.36.28-7.2-.39-14.33-.37-21.51,0-11.73-.86-23.47.54-35.18a1.43,1.43,0,0,0-1-1.42c-2.61-.4-5.25-1-7.77.44a9,9,0,0,0-.78,4.66q0,16.8,0,33.59c0,.88,0,1.77,0,2.64-.17,2.8-1,3.71-3.67,3.87-.84.05-1.69,0-2.53,0-11.82,0-23.63,0-35.44,0-3.23,0-6.42.87-9.64.42a88.35,88.35,0,0,0-11-.4c-3.68-.06-7.39.5-11,.29-7.06-.42-14.11-.12-21.16-.29a20.36,20.36,0,0,1-2.07-.06c-2.27-.24-3.14-1.14-3.34-3.47-.07-.88,0-1.76,0-2.64.22-11,.67-22.05.47-33.08a9.59,9.59,0,0,0-1.41-5.68c-2.39-.73-4.78-1.51-7,.57,0,2.56-.56,5.07-.54,7.65.07,8.8,0,17.59,0,26.39,0,5.6,0,11.2,0,16.8,0,1.93.76,2.82,2.58,2.8l1.84,0c27.38,0,54.76-.09,82.14,0,6.21,0,12.41-.38,18.62-.47,3,0,4.42,1.33,4.42,4.47,0,11.3-.13,40.21-.15,37.4" class="c" transform="translate(-11.36 -8.69)"/><rect width="375" height="250" x="112.5" y="96.06" class="a" rx="20"/><path d="M515.71,492.25H107.29c-21.48,0-34.79-9.6-29.93-21l44.13-103.41c3.05-7.16,34.79-12.8,34.79-12.8h308c16.2,0,31.84,5.64,35,12.8l45.93,103.41C550.34,482.65,537.19,492.25,515.71,492.25Z" class="a" transform="translate(-11.36 -8.69)"/><rect width="340" height="220" x="130" y="114.06" class="e" rx="20.54"/><path d="M487.08,429.56H135.64c-11.59,0-20.18-2.25-19.2-5l16.89-47.45c.8-2.27,9.89-4.09,20.29-4.09H469.1c10.4,0,19.49,1.82,20.29,4.09l16.89,47.45C507.26,427.31,498.67,429.56,487.08,429.56Z" class="f" transform="translate(-11.36 -8.69)"/><rect width="300" height="180" x="150" y="137.84" class="a" rx="17.45"/><path d="M192.57,163.85c79.37.27,158.74.16,238.11.17,10.58,0,13.76,3,13.9,13,.28,21.37.28,21.37-22.11,21.37H197.39c-19.18,0-19.3.24-19.3-22.91C178.5,164.66,184.32,163.83,192.57,163.85Z" class="e" transform="translate(-11.36 -8.69)"/><circle cx="189.56" cy="172.45" r="8" class="a"/><circle cx="210.84" cy="172.45" r="8" class="a"/><circle cx="232.13" cy="172.45" r="8" class="a"/><path d="M218.34,272c-5.65-3.63-4.79-8.26-4.28-12.82.47-4.17,3.7-5.82,8-7.45,14.11-5.31,28.65-9.88,41.42-18.28a8.71,8.71,0,0,1,8.46-.55c2.83,1.15,1.67,4.14,1.92,6.5.76,7-1.87,10.91-8.86,13.1-8.34,2.62-16.26,6.58-25.61,10.48,9.83,4,18.35,7.43,26.81,11,6.74,2.83,10.3,11.47,7.23,18-.82,1.74-1.51,3.39-5.17,1.53" class="g" transform="translate(-11.36 -8.69)"/><path d="M381.62,262.1q-13.53-5.39-27.12-10.78c-5.19-2.08-8.38-12.83-5.09-17.29,1.86-2.51,4.2-1.81,6.6-.78,16.22,7,32.4,14.07,48.71,20.86,4.75,2,4.19,5.74,4.3,9.51.13,4.14-1.19,8.16-5.12,9.24-15.54,4.31-29.52,12.32-44.43,18.08-3.47,1.33-8.47,5.11-10.18-1-1.4-5-3.14-11.67,4.26-14.79" class="g" transform="translate(-11.36 -8.69)"/><path d="M309,299.05c-1.88,5.7-4.9,9.09-10.44,7.58-10.21-.19-11.37-1.57-8.08-10q14.46-37,29.27-73.87c1.95-4.88,12.49-7.28,16.6-4,2.78,2.19,1.82,4.95.86,7.44" class="g" transform="translate(-11.36 -8.69)"/></svg>