<svg xmlns="http://www.w3.org/2000/svg" xmlns:svg="http://www.w3.org/2000/svg" id="svg8" width="641.998" height="640.427" version="1.1" viewBox="0 0 169.862 169.446"><metadata id="metadata5"/><g id="layer1" transform="translate(16.140961,7.6109763)"><path style="fill:#ffc200;fill-opacity:1;stroke-width:.193566" id="path1007" d="m 40.965911,44.34591 c -0.1701,-0.0952 -0.46741,-0.315685 -0.660691,-0.48998 -0.414459,-0.37375 -0.608451,-0.526658 -1.637348,-1.290568 -0.425844,-0.316175 -0.880964,-0.661967 -1.011375,-0.768427 -0.13041,-0.106463 -0.435276,-0.343765 -0.677481,-0.527338 -0.394603,-0.299083 -2.392752,-1.881878 -2.999701,-2.37616 -0.13073,-0.10646 -0.435856,-0.342937 -0.678061,-0.525505 -0.747717,-0.563604 -2.751605,-2.16273 -2.973173,-2.372619 -0.115501,-0.109416 -0.449249,-0.373147 -0.741664,-0.586068 -0.292412,-0.212923 -2.122903,-1.650153 -4.067757,-3.193846 -1.944854,-1.543693 -5.459066,-4.331046 -7.809359,-6.194123 l -4.273262,-3.387413 32.940385,-0.14125 c 18.117214,-0.07769 41.031816,-0.12124 50.92134,-0.09678 l 17.980946,0.04447 3.85316,10.910863 c 2.11924,6.000975 3.82711,10.934692 3.79527,10.963817 -0.164,0.14999 -81.693502,0.180761 -81.961229,0.03093 z"/><path style="fill:#00aef7;fill-opacity:1;stroke-width:.193566" id="path1011" d="M 56.425433,78.219193 C 55.939679,77.815082 58.1753,79.573929 36.693966,62.695687 26.793046,54.916368 18.508077,48.297017 18.282924,47.986015 c -0.256825,-0.354748 -0.45829,-1.020056 -0.540649,-1.785429 -0.07221,-0.670989 -0.212328,-1.481291 -0.311386,-1.800675 -0.09906,-0.319386 -0.30789,-1.364644 -0.464074,-2.322798 -0.156183,-0.958152 -0.458231,-2.70025 -0.671221,-3.871328 -0.21299,-1.171075 -0.568664,-3.130933 -0.790385,-4.355243 -0.221723,-1.224306 -0.525092,-2.879298 -0.67415,-3.67776 -0.149058,-0.79846 -0.414134,-2.279243 -0.589052,-3.290629 -0.174919,-1.011383 -0.441138,-2.355969 -0.591596,-2.987963 -0.150457,-0.631997 -0.240871,-1.181772 -0.200919,-1.221724 0.03995,-0.03995 0.376375,0.194045 0.74761,0.519993 0.371234,0.325949 0.765095,0.592633 0.875247,0.592633 0.110148,0 0.229309,0.07749 0.264795,0.172209 0.03549,0.09471 0.804912,0.746022 1.709835,1.44735 0.904925,0.701331 1.762085,1.375032 1.904807,1.497116 1.059026,0.90591 3.091907,2.443882 3.369879,2.54948 0.186306,0.07078 0.33874,0.201726 0.33874,0.290994 0,0.08927 0.587957,0.589521 1.306574,1.111668 0.718613,0.522147 1.37623,1.061577 1.461365,1.198731 0.08513,0.137155 0.276794,0.249373 0.425905,0.249373 0.149114,0 0.34077,0.112416 0.425908,0.249817 0.08513,0.137401 0.719994,0.681805 1.410798,1.209789 0.6908,0.527986 1.35887,1.047078 1.484595,1.153538 0.125727,0.106463 0.452541,0.367776 0.72625,0.5807 0.273711,0.212923 0.66716,0.523224 0.874331,0.689554 0.207169,0.16633 0.611272,0.471199 0.898004,0.677481 0.286734,0.206286 0.723625,0.549273 0.970873,0.762196 0.543938,0.468427 1.002585,0.828929 2.432978,1.912356 0.601673,0.455723 1.223531,0.952269 1.381908,1.103431 0.158377,0.151162 0.528154,0.449051 0.821725,0.661975 0.696013,0.504806 4.362736,3.317044 4.725821,3.624521 0.26016,0.220321 2.829616,2.233163 3.837385,3.006106 0.242204,0.185769 0.547073,0.428022 0.677481,0.538342 0.130413,0.110321 0.585531,0.458224 1.011378,0.773123 0.425847,0.314897 0.843923,0.681935 0.929058,0.815639 0.08514,0.133707 0.276794,0.243102 0.425907,0.243102 0.149112,0 0.340768,0.108881 0.425905,0.241959 0.08514,0.133077 0.720974,0.675314 1.412976,1.204973 0.691999,0.529662 1.36488,1.05229 1.49529,1.161399 0.130411,0.109109 0.435277,0.347755 0.677484,0.53032 0.242202,0.182568 0.962999,0.746856 1.601769,1.253975 0.638768,0.507116 1.248503,0.990928 1.354963,1.075134 0.106463,0.08421 1.761456,1.376624 3.677761,2.872039 1.916309,1.495412 3.849206,3.018076 4.295328,3.38369 0.446122,0.365617 0.896165,0.66476 1.000091,0.66476 0.103931,0 0.217998,0.07749 0.253487,0.172207 0.03549,0.09472 0.804912,0.74784 1.709835,1.451396 0.904923,0.703551 1.830141,1.431779 2.056043,1.618279 0.225904,0.186504 0.596101,0.467206 0.822658,0.623784 0.22656,0.15658 0.411927,0.341019 0.411927,0.409863 0,0.119552 -13.080026,11.603829 -13.200975,11.590473 -0.03208,-0.0035 -0.238067,-0.155975 -0.457758,-0.338741 z"/><path style="fill:#006ac7;fill-opacity:1;stroke-width:.193566" id="path1015" d="m 22.990187,108.63026 c 0.725752,-0.66817 16.578144,-14.703388 18.912822,-16.744828 0.319384,-0.279271 1.800167,-1.586545 3.290628,-2.905059 1.490459,-1.318514 2.971242,-2.625307 3.290629,-2.903982 0.319383,-0.278678 1.408194,-1.236475 2.419577,-2.128435 1.011386,-0.891961 2.300555,-2.025679 2.864821,-2.519376 0.564272,-0.493694 1.405723,-1.246045 1.869898,-1.671892 2.508551,-2.301412 4.136612,-3.757922 6.492131,-5.808046 1.43723,-1.250891 2.961566,-2.594102 3.387413,-2.98491 0.425844,-0.39081 1.471105,-1.309626 2.322796,-2.041816 0.851691,-0.732187 1.722742,-1.510511 1.935662,-1.729607 0.382474,-0.393563 0.387782,-0.393735 0.44096,-0.01434 0.0296,0.211217 -0.03762,1.342181 -0.149381,2.513259 -0.111765,1.171077 -0.322511,3.610012 -0.468328,5.419857 -0.145817,1.809845 -0.323027,3.595497 -0.393801,3.968112 -0.07077,0.372616 -0.25781,2.245368 -0.415639,4.161677 -0.157827,1.916305 -0.382302,4.642418 -0.49883,6.058027 l -0.21187,2.573832 -10.032683,8.798187 -10.032682,8.79819 H 35.046675 22.079039 Z"/><path style="fill:#041564;fill-opacity:1;stroke-width:.193566" id="path1021" d="m 14.52127,131.30297 c 0.06856,-0.29277 0.237561,-0.79362 0.375554,-1.11301 0.137991,-0.31938 0.479439,-1.27753 0.758773,-2.12922 0.279331,-0.8517 0.582683,-1.72275 0.674118,-1.93567 0.09144,-0.21292 0.830403,-2.34699 1.642153,-4.74238 0.811749,-2.39538 2.067274,-6.05378 2.790057,-8.12978 l 1.314154,-3.77455 50.867302,-0.0487 c 40.669739,-0.039 50.849259,-1.7e-4 50.777269,0.19357 -0.0495,0.13328 -1.63607,4.94598 -3.52568,10.6949 -1.88961,5.74892 -3.53473,10.69212 -3.65583,10.98489 l -0.22018,0.53231 H 65.357785 14.396611 Z"/></g></svg>